<svg width="954" height="636" viewBox="0 0 954 636" fill="none" xmlns="http://www.w3.org/2000/svg">
<path d="M108.725 165.006C119.322 148.569 133.946 135.292 152.596 125.177C171.247 115.062 193.077 110.004 218.086 110.004C247.333 110.004 273.826 117.38 297.563 132.131C321.3 146.883 339.951 167.956 353.515 195.352C367.503 222.748 374.497 254.569 374.497 290.815C374.497 327.062 367.503 359.093 353.515 386.911C339.951 414.306 321.3 435.59 297.563 450.763C273.826 465.515 247.333 472.891 218.086 472.891C193.501 472.891 171.671 467.833 152.596 457.718C133.946 447.602 119.322 434.537 108.725 418.521V636H0V115.062H108.725V165.006ZM263.864 290.815C263.864 263.841 256.235 242.767 240.975 227.594C226.139 212 207.7 204.203 185.659 204.203C164.041 204.203 145.602 212 130.343 227.594C115.507 243.189 108.089 264.473 108.089 291.447C108.089 318.421 115.507 339.706 130.343 355.3C145.602 370.895 164.041 378.692 185.659 378.692C207.277 378.692 225.715 370.895 240.975 355.3C256.235 339.284 263.864 317.789 263.864 290.815Z" fill="#7F5AF0"/>
<path d="M475.408 472.891C440.65 472.891 409.283 465.515 381.307 450.763C353.755 436.012 331.925 414.938 315.818 387.543C300.134 360.147 292.292 328.115 292.292 291.447C292.292 255.201 300.346 223.38 316.453 195.984C332.561 168.167 354.603 146.883 382.579 132.131C410.555 117.38 441.922 110.004 476.68 110.004C511.438 110.004 542.805 117.38 570.781 132.131C598.757 146.883 620.798 168.167 636.906 195.984C653.013 223.38 661.067 255.201 661.067 291.447C661.067 327.694 652.801 359.726 636.27 387.543C620.162 414.938 597.909 436.012 569.509 450.763C541.533 465.515 510.166 472.891 475.408 472.891ZM475.408 379.324C496.178 379.324 513.769 371.738 528.181 356.565C543.017 341.392 550.434 319.686 550.434 291.447C550.434 263.209 543.228 241.503 528.817 226.33C514.829 211.157 497.45 203.571 476.68 203.571C455.486 203.571 437.895 211.157 423.907 226.33C409.919 241.082 402.925 262.787 402.925 291.447C402.925 319.686 409.707 341.392 423.271 356.565C437.259 371.738 454.638 379.324 475.408 379.324Z" fill="#7F5AF0"/>
<path d="M579.503 290.815C579.503 254.569 586.285 222.748 599.849 195.352C613.837 167.956 632.7 146.883 656.437 132.131C680.174 117.38 706.667 110.004 735.914 110.004C759.228 110.004 780.422 114.851 799.496 124.545C818.995 134.239 834.254 147.304 845.275 163.742V0H954V467.833H845.275V417.256C835.102 434.115 820.478 447.602 801.404 457.718C782.753 467.833 760.923 472.891 735.914 472.891C706.667 472.891 680.174 465.515 656.437 450.763C632.7 435.59 613.837 414.306 599.849 386.911C586.285 359.093 579.503 327.062 579.503 290.815ZM845.275 291.447C845.275 264.473 837.645 243.189 822.386 227.594C807.55 212 789.323 204.203 767.705 204.203C746.087 204.203 727.649 212 712.389 227.594C697.553 242.767 690.136 263.841 690.136 290.815C690.136 317.789 697.553 339.284 712.389 355.3C727.649 370.895 746.087 378.692 767.705 378.692C789.323 378.692 807.55 370.895 822.386 355.3C837.645 339.706 845.275 318.421 845.275 291.447Z" fill="#7F5AF0"/>
</svg>
